<svg width="121" height="77" viewBox="0 0 121 77" fill="none" xmlns="http://www.w3.org/2000/svg">
<path d="M4.36018 43.5391V42.2845C4.36018 38.0188 4.56928 34.4432 4.98747 31.5577C5.40567 28.6512 6.12707 26.2884 7.15165 24.4692C8.17624 22.65 9.56675 21.2595 11.3232 20.2977C13.1005 19.3358 15.3274 18.6876 18.0039 18.3531C20.6804 17.9976 23.9005 17.8198 27.6643 17.8198H40.3043C44.6118 17.8198 48.2397 18.0289 51.188 18.4471C54.1572 18.8444 56.5409 19.6495 58.3392 20.8622C60.1583 22.0541 61.4756 23.821 62.2911 26.1629C63.1066 28.4839 63.5144 31.5681 63.5144 35.4156H57.4923C57.4923 32.3836 57.2205 30.0312 56.6768 28.3585C56.1332 26.6647 55.2131 25.4415 53.9167 24.6888C52.6412 23.936 50.8952 23.476 48.6788 23.3087C46.4623 23.1205 43.6708 23.0264 40.3043 23.0264H27.6643C24.6742 23.0264 22.1545 23.1205 20.1054 23.3087C18.0562 23.476 16.3834 23.8837 15.087 24.5319C13.8115 25.1592 12.8287 26.1629 12.1387 27.543C11.4696 28.923 11.0095 30.8049 10.7586 33.1886C10.5077 35.5724 10.3822 38.6043 10.3822 42.2845V43.5391C10.3822 47.0937 10.5077 50.042 10.7586 52.384C11.0095 54.7259 11.4696 56.5973 12.1387 57.9983C12.8287 59.3992 13.8115 60.4447 15.087 61.1348C16.3834 61.8248 18.0562 62.2744 20.1054 62.4835C22.1545 62.6926 24.6742 62.7971 27.6643 62.7971H40.3043C43.6708 62.7971 46.4623 62.7239 48.6788 62.5776C50.8952 62.4312 52.6412 62.0025 53.9167 61.2916C55.2131 60.5807 56.1332 59.3992 56.6768 57.7474C57.2205 56.0746 57.4923 53.7327 57.4923 50.7216H63.5144C63.5144 54.569 63.1066 57.6428 62.2911 59.9429C61.4756 62.243 60.1583 63.9785 58.3392 65.1495C56.5409 66.2995 54.1572 67.0627 51.188 67.4391C48.2397 67.8155 44.6118 68.0037 40.3043 68.0037H27.6643C22.9596 68.0037 19.0912 67.6796 16.0593 67.0314C13.0273 66.4041 10.6541 65.2331 8.93945 63.5185C7.24575 61.8039 6.05388 59.3365 5.36385 56.1164C4.69474 52.8963 4.36018 48.7038 4.36018 43.5391Z" fill="#C3F001"/>
<path d="M110.712 53.074C110.712 51.213 110.565 49.7493 110.273 48.6829C109.98 47.6165 109.321 46.8324 108.297 46.3305C107.272 45.8078 105.683 45.4732 103.529 45.3269C101.376 45.1596 98.4273 45.0446 94.6844 44.9818L77.2455 44.7309C72.9381 44.6682 69.4775 44.4068 66.8637 43.9468C64.25 43.4868 62.274 42.7654 60.9358 41.7826C59.5975 40.779 58.6984 39.4407 58.2384 37.7679C57.7993 36.0951 57.5797 34.0041 57.5797 31.4949C57.5797 28.7557 57.8829 26.4975 58.4893 24.7201C59.1166 22.9428 60.2353 21.5523 61.8454 20.5486C63.4763 19.5449 65.7764 18.8444 68.7456 18.4471C71.7148 18.0289 75.5518 17.8198 80.2565 17.8198H93.6807C97.9463 17.8198 101.501 17.9558 104.345 18.2276C107.189 18.4994 109.447 19.1267 111.12 20.1095C112.792 21.0923 113.984 22.6187 114.695 24.6888C115.427 26.7588 115.793 29.6026 115.793 33.22H109.771C109.771 30.4181 109.499 28.3062 108.955 26.8843C108.433 25.4415 107.554 24.4588 106.321 23.936C105.108 23.4133 103.467 23.131 101.396 23.0892C99.3264 23.0473 96.7545 23.0264 93.6807 23.0264H80.5702C76.8273 23.0264 73.8267 23.0996 71.5685 23.246C69.3311 23.3923 67.6374 23.7269 66.4874 24.2497C65.3373 24.7724 64.5636 25.6088 64.1664 26.7588C63.79 27.9089 63.6018 29.4876 63.6018 31.4949C63.6018 33.1886 63.7377 34.5478 64.0095 35.5724C64.2814 36.597 64.8877 37.3811 65.8287 37.9247C66.7906 38.4475 68.2647 38.8134 70.2511 39.0225C72.2376 39.2107 74.9454 39.3257 78.3747 39.3675L97.0681 39.6184C101.459 39.6812 104.962 39.9426 107.575 40.4026C110.21 40.8417 112.176 41.5631 113.472 42.5667C114.789 43.5704 115.657 44.9296 116.075 46.6442C116.514 48.3379 116.734 50.4812 116.734 53.074C116.734 55.8968 116.462 58.2701 115.918 60.1938C115.396 62.0966 114.371 63.623 112.845 64.7731C111.318 65.9231 109.112 66.7491 106.227 67.2509C103.341 67.7528 99.546 68.0037 94.8412 68.0037H80.1625C75.8759 68.0037 72.2794 67.8155 69.3729 67.4391C66.4664 67.0627 64.1454 66.31 62.4099 65.1808C60.6953 64.0308 59.4616 62.3266 58.7089 60.0684C57.9561 57.8101 57.5797 54.7991 57.5797 51.0353H63.6018C63.6018 53.9836 63.8423 56.2628 64.3232 57.8728C64.8041 59.4829 65.6405 60.6434 66.8324 61.3543C68.0451 62.0443 69.7284 62.4625 71.8821 62.6089C74.0568 62.7344 76.8169 62.7971 80.1625 62.7971H94.5276C98.2704 62.7971 101.229 62.6821 103.404 62.4521C105.578 62.2012 107.189 61.7412 108.234 61.072C109.28 60.382 109.949 59.3992 110.241 58.1237C110.555 56.8482 110.712 55.165 110.712 53.074Z" fill="#C3F001"/>
</svg>
